# xmcd
#
# Track frame offsets:
# 150
# 11638
# 24948
# 34518
# 47163
# 59690
# 72925
# 87060
# 99125
# 109718
# 122405
# 133768
# 144063
# 155083
# 167198
# 178378
#
# Disc length: 2507 seconds
#
#
# Revision: 2
# Processed by: cddbd v1.5.2PL0 Copyright (c) Steve Scherf et al.
# Submitted via: FreeRIP 2.951 
#
DISCID=cf09c910
DTITLE=George Jones - 16 Greatest Hits
DYEAR=1900
DGENRE=Country
TTITLE0=I'll Share My World With You
TTITLE1=When The Grass Grows Over Me
TTITLE2=The Race Is On
TTITLE3=She Thinks I Still Care
TTITLE4=Take Me
TTITLE5=Things Have Gone To Pieces
TTITLE6=A Good Year For The Roses
TTITLE7=White Lightnin'
TTITLE8=Walk Through This World With Me
TTITLE9=If My Heart Had Windows
TTITLE10=Say It's Not You
TTITLE11=Your Angel Steps Out Of Heaven
TTITLE12=Color Of The Blues
TTITLE13=Window Up Above
TTITLE14=Tender Years
TTITLE15=Sometimes You Just Can't Wait
EXTD=
EXTT0=
EXTT1=
EXTT2=
EXTT3=
EXTT4=
EXTT5=
EXTT6=
EXTT7=
EXTT8=
EXTT9=
EXTT10=
EXTT11=
EXTT12=
EXTT13=
EXTT14=
EXTT15=
PLAYORDER=
